<?xml version="1.0" standalone="no"?>
<!DOCTYPE svg PUBLIC "-//W3C//DTD SVG 20010904//EN"
 "http://www.w3.org/TR/2001/REC-SVG-20010904/DTD/svg10.dtd">
<svg version="1.0" xmlns="http://www.w3.org/2000/svg"
 width="511.000000pt" height="511.000000pt" viewBox="0 0 511.000000 511.000000"
 preserveAspectRatio="xMidYMid meet">
<metadata>
Created by potrace 1.11, written by Peter Selinger 2001-2013
</metadata>
<g transform="translate(0.000000,511.000000) scale(0.100000,-0.100000)"
fill="#000000" stroke="none">
<path d="M1760 3382 l0 -597 283 -119 c155 -66 306 -130 335 -143 l52 -23 0
740 0 740 -335 0 -335 0 0 -598z"/>
<path d="M440 2674 c-217 -174 -405 -323 -418 -331 l-22 -15 0 -339 c0 -187 2
-339 5 -339 3 0 193 154 422 341 230 188 423 345 429 350 6 5 185 -68 435
-177 233 -102 791 -345 1239 -541 448 -196 819 -356 826 -356 6 0 197 139 425
309 228 170 515 384 638 477 l225 167 47 -126 c26 -69 49 -127 51 -129 2 -2
79 210 172 471 93 261 166 477 163 480 -5 5 -956 -139 -992 -150 -5 -2 47 -32
117 -67 l127 -64 -475 -345 c-261 -190 -484 -349 -494 -354 -18 -8 -272 98
-2217 925 -166 71 -304 129 -305 129 -2 0 -181 -143 -398 -316z"/>
</g>
</svg>
